<?xml version="1.0" encoding="utf-8"?>
<!-- Generator: Adobe Illustrator 25.0.0, SVG Export Plug-In . SVG Version: 6.00 Build 0)  -->
<svg version="1.1" id="Capa_1" xmlns="http://www.w3.org/2000/svg" xmlns:xlink="http://www.w3.org/1999/xlink" x="0px" y="0px"
	 viewBox="0 0 711 835" style="enable-background:new 0 0 711 835;" xml:space="preserve">
<style type="text/css">
	.st0{fill:#F9FF00;}
</style>
<path class="st0" d="M628.8,558.8l-0.2-271l0.4-35.1l2-167L538.3,54l17.3,5.9c-4.6-1.8-9.2-3.5-13.9-5.1c-4.7-1.6-9.4-3.1-14.2-4.5
	l-78.4-26.8l-28-9.6C267.6-31.2,99.1,36.6,39.5,169.9c-10.7,24-17.4,49.2-19.9,74.9l-0.5,39.2l0.3,267.2l-0.3,28.1L17,749.7
	l195.7,66.9c156.9,53.7,333.9-14.1,395.3-151.2c11.8-26.4,18.8-54.3,20.5-82.6L628.8,558.8z"/>
</svg>
