<svg id="Capa_1" data-name="Capa 1" xmlns="http://www.w3.org/2000/svg" viewBox="0 0 88.39 95.88"><defs><style>.cls-1{fill:#0c0a1c;}.cls-2{fill:#f9ff00;}</style></defs><path class="cls-1" d="M35,95.88q-12,0-19.75-3.79A25.59,25.59,0,0,1,0,68.22,25,25,0,0,1,10.16,47.57q10.15-7.92,30.46-7.93h23.7V37.43q0-9.41-5.46-13.83a20.79,20.79,0,0,0-13.54-4.43,23.58,23.58,0,0,0-12.79,3.42,14.69,14.69,0,0,0-6.77,10H2.26A31.77,31.77,0,0,1,9.12,15.3,38.5,38.5,0,0,1,24.45,4,53.78,53.78,0,0,1,45.51,0Q65.44,0,76.92,9.77T88.39,37.43V93.66H67.89L65.63,78.91A34.31,34.31,0,0,1,54.07,91.08Q46.63,95.88,35,95.88Z"/><path class="cls-2" d="M40.43,77.44q10.35,0,16.08-6.64a31.9,31.9,0,0,0,7.24-16.41H43.25q-9.59,0-13.72,3.41a10.49,10.49,0,0,0-4.14,8.39,9.6,9.6,0,0,0,4.14,8.3Q33.66,77.44,40.43,77.44Z"/></svg>