<svg id="Capa_1" data-name="Capa 1" xmlns="http://www.w3.org/2000/svg" viewBox="0 0 837.96 173.31"><defs><style>.cls-1{fill:#0c0a1c;}.cls-2{fill:#fff;}</style></defs><path class="cls-1" d="M40.18,104l-.52-1.18a20.88,20.88,0,1,0-18.79,30H53Z"/><path class="cls-1" d="M98.2,104c-.16-.4-.34-.79-.52-1.18L92.43,91.05,59.24,16.57,51.93.15H38.37a20.67,20.67,0,0,0-8.08,1.63,20.88,20.88,0,0,0-11.2,27.27l.42.93,0,.1L24.82,41.9,58,116.39l7.31,16.41H78.89A20.87,20.87,0,0,0,98.2,104Z"/><path class="cls-1" d="M259.68,104l-.52-1.18a20.88,20.88,0,1,0-18.79,30h32.15Z"/><path class="cls-1" d="M317.68,104c-.16-.4-.33-.79-.52-1.18l-5.25-11.76L278.72,16.57,271.41.15H257.85a20.67,20.67,0,0,0-8.08,1.63,20.91,20.91,0,0,0-11.2,27.27L239,30l0,.1L244.3,41.9l33.2,74.49,7.31,16.41h13.56A20.87,20.87,0,0,0,317.68,104Z"/><path class="cls-2" d="M188.29,73.86,171.6,36.41l-8.8-19.73L161,12.74l-.14-.32-.07-.15h0a20.92,20.92,0,0,0-18.9-12H109.7l8.06,17.92,3.29,7.39,1.6,3.59.42.93,0,.09L128.38,42l5,11.15,9.22,20.7.78,1.74,4.06,9.11,3.17,7.11,2.65,6a7.26,7.26,0,0,1-2.73.54,7,7,0,0,1-2.24-.37l-.29-.1a7.16,7.16,0,0,1-4.62-6.68A17.14,17.14,0,0,0,142,84.43l0-.08a17.3,17.3,0,0,0-15.91-10.49h-29l5.11,11.46L108.76,100l3.75,8.42h0a41.53,41.53,0,0,0,54.73,20.78c.67-.3,1.33-.61,2-.95A41.62,41.62,0,0,0,192,93.07c0-.64,0-1.27,0-1.91a41.47,41.47,0,0,0-3.77-17.3Z"/><path class="cls-2" d="M211.93,3.94A20.74,20.74,0,0,0,202.27.17L201.61.1c-.61,0-1.23-.09-1.85-.09H178.88V.1H167.64l9.58,21.49,1.66,3.74L180.5,29l.19.42a20.88,20.88,0,0,0,38.22-.2c.25-.58.48-1.18.67-1.78a20.84,20.84,0,0,0-7.65-23.47Z"/><path class="cls-2" d="M390.38,135q-12,0-19.74-3.78a25.6,25.6,0,0,1-15.24-23.87,25,25,0,0,1,10.16-20.65q10.15-7.93,30.46-7.93h23.7V76.52q0-9.4-5.45-13.83a20.81,20.81,0,0,0-13.54-4.43,23.64,23.64,0,0,0-12.79,3.41,14.66,14.66,0,0,0-6.77,10H357.66a31.89,31.89,0,0,1,6.86-17.33,38.5,38.5,0,0,1,15.33-11.34,53.78,53.78,0,0,1,21.06-4q19.93,0,31.41,9.77t11.47,27.66v56.23h-20.5L421,118a34.42,34.42,0,0,1-11.57,12.17Q402,135,390.38,135Zm5.46-18.43q10.34,0,16.08-6.64a32,32,0,0,0,7.24-16.41h-20.5q-9.6,0-13.73,3.41a10.49,10.49,0,0,0-4.14,8.39,9.61,9.61,0,0,0,4.14,8.3Q389.07,116.52,395.84,116.53Z"/><path class="cls-2" d="M466.73,132.75V0h24.08V132.75Z"/><path class="cls-2" d="M515.44,173.31V41.3h21.44l2.63,13.09a42.37,42.37,0,0,1,12-10.69q7.42-4.61,19.27-4.61a44.48,44.48,0,0,1,23.51,6.27A45.31,45.31,0,0,1,610.6,62.5a50.23,50.23,0,0,1,6,24.71,49.66,49.66,0,0,1-6,24.61A44.31,44.31,0,0,1,570.73,135a41.43,41.43,0,0,1-18.43-3.87,33,33,0,0,1-12.79-10.88v53.1Zm50.21-59q11.48,0,19-7.56t7.52-19.54q0-12-7.52-19.73a25.39,25.39,0,0,0-19-7.74q-11.65,0-19.08,7.65T539.14,87q0,12,7.43,19.63T565.65,114.31Z"/><path class="cls-2" d="M638.05,132.75V0h24.08V55.31a33.38,33.38,0,0,1,12.69-11.89,37.85,37.85,0,0,1,18.34-4.33q17.3,0,26.8,10.69t9.49,31.34v51.63H705.57V83.34q0-11.81-4.8-18.07T685.63,59a22.27,22.27,0,0,0-16.83,7q-6.67,7-6.67,19.54v47.2Z"/><path class="cls-2" d="M784.55,135q-12,0-19.74-3.78a25.6,25.6,0,0,1-15.24-23.87,25,25,0,0,1,10.16-20.65q10.15-7.93,30.47-7.93h23.69V76.52q0-9.4-5.45-13.83a20.81,20.81,0,0,0-13.54-4.43,23.64,23.64,0,0,0-12.79,3.41,14.66,14.66,0,0,0-6.77,10H751.83a31.83,31.83,0,0,1,6.87-17.33A38.4,38.4,0,0,1,774,43.05a53.78,53.78,0,0,1,21.06-4q19.93,0,31.41,9.77T838,76.52v56.23h-20.5L815.21,118a34.42,34.42,0,0,1-11.57,12.17Q796.22,135,784.55,135ZM790,116.53q10.34,0,16.08-6.64a32,32,0,0,0,7.24-16.41h-20.5q-9.6,0-13.73,3.41a10.49,10.49,0,0,0-4.14,8.39,9.61,9.61,0,0,0,4.14,8.3Q783.24,116.52,790,116.53Z"/></svg>